<svg width="487" height="523" fill="none" xmlns="http://www.w3.org/2000/svg"><path d="M419.591 236.729H311.598l13.863 255.517h115.945l-21.815-255.517z" fill="#7DC0BC"/><path fill-rule="evenodd" clip-rule="evenodd" d="M89.909 333.706c-8.655 3.772-14.292 7.769-16.903 11.986-3.678 5.94-.771 10.774 7.574 12.596 5.87 1.281 12.588 1.11 19.903-.507 17.093-3.778 30.09-13.587 28.09-21.2-.848-3.228-4.175-5.444-9.778-6.514-6.678-1.275-11.226-.96-20.78 1.44-3.974.998-7.622 1.988-8.106 2.199zm39.338 9.55c-.392 1.792-2.854 5.247-5.186 7.276-4.526 3.94-9.979 6.674-18.178 9.113-13.141 3.909-25.566 3.698-30.92-.524-.83-.655-1.618-1.161-1.75-1.126-.133.036.269 1.959.893 4.273.963 3.57 1.285 4.391 2.128 5.418 3.144 3.833 12.052 5.544 22.526 4.327 4.838-.562 14.739-3.463 18.844-5.521 5.998-3.008 10.064-6.066 12.58-9.46 1.741-2.348 2.345-4.497 1.977-7.028-.341-2.343-2.078-7.903-2.439-7.807-.142.038-.355.515-.475 1.059zm3.352 13.671c-3.87 11.513-29.946 21.379-47.517 17.978-1.951-.377-3.438-.964-5.651-2.23l-3.004-1.719 1.125 4.191c1.474 5.493 1.874 6.14 4.825 7.802 12.863 7.242 43.799-.803 51.911-13.5 1.89-2.958 2.026-4.345.896-9.169-.52-2.219-1.162-4.333-1.428-4.699-.466-.641-.505-.595-1.157 1.346zm3.557 13.141c-1.85 5.83-8.991 11.173-20.431 15.285-8.82 3.171-18.998 4.293-26.374 2.907-2.485-.466-3.877-.955-5.688-1.999-1.32-.76-2.716-1.666-3.104-2.013-.67-.599-.64-.383.574 4.207 1.431 5.414 1.88 6.183 4.491 7.69 4.177 2.412 9.819 3.24 17.933 2.633 3.37-.252 4.366-.472 11.618-2.567 7.092-2.049 8.25-2.464 10.94-3.922 7.844-4.249 12.338-8.655 13.269-13.007.279-1.309.18-2.165-.683-5.888-.611-2.641-1.189-4.542-1.465-4.825-.397-.408-.536-.215-1.08 1.499zM194.27 238.028c-5.559-1.642-9.788-1.987-12.68-1.034-4.074 1.342-4.614 4.763-1.409 8.913 2.256 2.919 5.483 5.49 9.561 7.616 9.53 4.969 19.514 5.485 21.577 1.115.875-1.853.185-4.208-2.028-6.922-2.638-3.236-4.901-4.882-10.341-7.524-2.263-1.098-4.369-2.073-4.68-2.164zm14.732 20.015c-.891.688-3.413 1.341-5.31 1.376-3.684.067-7.327-.8-12.146-2.888-7.723-3.348-13.483-8.35-14.335-12.449-.132-.635-.303-1.185-.379-1.22-.076-.036-.646 1.027-1.266 2.362-.956 2.059-1.128 2.573-1.137 3.388-.034 3.043 3.48 7.364 8.886 10.925 2.498 1.645 8.298 4.187 11.041 4.839 4.009.953 7.127 1.119 9.65.516 1.746-.418 2.878-1.19 3.703-2.525.765-1.237 2.142-4.537 1.934-4.634-.082-.038-.37.102-.641.31zm-3.819 7.752c-6.363 3.888-22.52-1.762-29.442-10.296-.769-.947-1.236-1.811-1.778-3.279l-.734-1.994-1.125 2.415c-1.474 3.165-1.541 3.628-.809 5.574 3.191 8.482 20.916 16.906 29.741 14.136 2.057-.645 2.668-1.244 4.04-3.958.631-1.249 1.163-2.497 1.183-2.774.034-.485-.003-.479-1.076.176zm-3.513 7.585c-3.17 2.012-8.638 1.706-15.641-.874-5.399-1.99-10.629-5.479-13.551-9.041-.984-1.201-1.446-1.98-1.886-3.185-.32-.878-.619-1.856-.665-2.172-.078-.546-.15-.432-1.391 2.205-1.463 3.111-1.555 3.65-.922 5.389 1.013 2.783 3.339 5.399 7.395 8.315 1.684 1.212 2.24 1.501 6.477 3.378 4.144 1.835 4.852 2.097 6.693 2.473 5.366 1.097 9.218.798 11.373-.882.648-.505.939-.946 2.003-3.038.755-1.483 1.233-2.605 1.215-2.847-.025-.349-.167-.313-1.1.279z" fill="#001524" fill-opacity=".9"/><path d="M68 51V2h60.819M68 51v64.042m0-64.043h29.228s-5.404-4.698-5.588-9.026c-.268-6.313 6.155-10.657 12.465-10.316 5.93.322 11.05 4.378 11.175 10.316.084 3.978-4.728 9.026-4.728 9.026h18.267M68 115.042v52.868h60.819M68 115.042h23.64s-4.812-5.048-4.728-9.026c.125-5.938 5.245-9.995 11.175-10.316 6.31-.341 12.733 4.003 12.465 10.316-.184 4.328-4.298 9.026-4.298 9.026h22.565m0-113.042h60.819v49h-21.92s4.812-5.049 4.728-9.027c-.126-5.938-5.245-9.994-11.176-10.316-6.309-.341-12.732 4.003-12.464 10.316.183 4.328 5.587 9.026 5.587 9.026h-25.574m0-48.999v17.193s5.048-4.812 9.026-4.728c5.938.125 9.995 5.244 10.316 11.175.342 6.31-4.003 12.733-10.316 12.465-4.328-.184-9.456-4.728-9.456-4.728l.43 17.622m0 0v24.93s5.048-4.812 9.026-4.728c5.938.125 9.995 5.244 10.316 11.175.342 6.31-4.003 12.733-10.316 12.465-4.328-.184-9.026-5.158-9.026-5.158v25.359m0 52.868h60.819v-52.868h-24.929s4.812 5.048 4.728 9.026c-.125 5.938-5.245 9.995-11.175 10.316-6.31.341-12.733-4.003-12.465-10.316.184-4.328 4.298-9.026 4.298-9.026h-21.276m0 52.868v-19.772s-5.048 4.812-9.026 4.728c-5.938-.125-9.995-5.245-10.316-11.175-.341-6.31 4.003-12.733 10.316-12.465 4.328.184 9.026 4.298 9.026 4.298v-18.482" stroke="#000" stroke-width="3"/><path d="M396.699 72.254c0 7.547-4.099 11.565-10.248 12.416-.787.109-1.498.19-2.155.247a9.515 9.515 0 0 1 1.472 5.1 9.565 9.565 0 1 1-19.129 0c0-.949.256-1.46.514-2.326 5.07 0 8.731-1.09 10.336-7.152 1.788-6.752 1.741-15.585-6.751-17.85-5.466-.682-7.453 0-9.602 2.221l-36.105-3.438c-6.018-1.791-7.737-4.728-7.737-8.597 0-7.546 3.439-12.784 11.085-13.414 1.434 0 2.816.22 4.114.63a13.17 13.17 0 0 1-.015-.63c0-7.547 6.118-13.664 13.665-13.664 4.469 0 8.438 2.146 10.931 5.464a13.643 13.643 0 0 1 10.931-5.464c7.546 0 13.664 6.117 13.664 13.664 0 .091-.001.183-.003.274.884-.18 1.799-.274 2.736-.274 4.782 2.05 9.565 6.832 9.565 12.297 0 2.813-.85 5.427-2.307 7.6 5.064 1.777 5.054 6.453 5.041 12.036v.003l-.002.857zM190.868 33.686c.917-2.44-.289-4.544-1.535-6.538-3.223-5.158-9.462-6.148-15.174-2.58-5.712 3.57-5.958 10.049-3.373 14.185 1.246 1.994 3.834 3.868 5.952 3.868l-16.652 10.3 10.7 17.123c1.225-2.62 3.436-5.13 6.416-6.993 4.264-2.664 10.759-1.443 13.666 3.21 2.908 4.653 1.773 10.572-3.137 13.64-2.98 1.862-6.205 2.75-9.097 2.702l10.699 17.123 15.761-9.849c-.917 2.44-.861 4.924.385 6.919 2.584 4.136 9.31 4.595 15.022 1.025 2.854-1.783 4.915-4.234 5.941-6.757-.821-1.822-1.172-4.593-.705-7.799-1.29-1.62-3.302-2.555-5.622-2.774l8.33-5.205c1.348-2.488 3.223-4.996 5.74-7.35l-27.556-44.099-15.761 9.849z" fill="#7DC0BC"/><path d="M379.227 250.357c3.063 9.955 9.417 14.474 16.295 16.443m15.815 1.32c-4.704.2-10.421.225-15.815-1.32m-83.932-30.107 10.433-75.152m3.438-21.863-1.719 10.932m-1.719 10.931-16.085 6.133c-15.722 4.885-26.227 10.966-41.941-5.43l-36.964-41.695 19.342-14.276m75.648 55.268.859-4.885m23.559-49.088c-23.229 2.733-12.981 1.366-59.97 32.11L255.727 99.37l-9.352 6.903m100.066 1.295c0 8.882 18.446 6.832 18.446 0m-18.446 0 .683-6.832m17.763 6.832c43.099 8.685 38.161 22.396 94.677 132.902l-5.113 2.962m-89.564-135.864 1.367-11.614m23.25 63.281 39.857 98.535 7.897-4.513m-90.134-152.521c-23.229 3.416-23.229-8.882-23.229-21.18.684-4.098-3.416-4.782-3.416-4.782-4.782 0-4.099-7.515 3.416-8.881m23.229 34.843 8.199-1.366m22.938-26.144c0-3.049-.524-6.021-2.511-8.121-1.719-1.817-3.49-2.52-6.37-2.756m8.881 10.877c0 5.744-1.222 10.36-4.23 12.51m4.23-12.51c0-8.121-7.239-7.262-9.388-7.262-5.158 0-6.877 5.158-6.877 8.597 0 4.298 1.719 9.456 6.017 9.456s10.248-.43 10.248-10.79zm-4.23 12.51c-1.243.888-3.792 1.72-5.158 1.72-9.456 0-11.108-6.448-11.108-14.23 0-4.1 2.05-10.931 10.248-10.931.476 0 .931.018 1.367.054m4.651 23.387c10.659 17.466 4.441 30.486 0 34.813-7.315 12.38-.228 32.486 4.23 40.992 13.465 22.913 10.527 36.664 7.375 40.676-7.909 19.255 3.008 37.824 9.456 44.701 7.565 9.856 3.438 17.362.43 19.882M369.38 62.35c8.881-26.7-1.611-33.35-12.542-33.35m80.42 224.257c6.877 9.659 7.45 22.889 8.166 27.867 0 8.252 6.448 6.189 6.448 0 0-6.19-1.003-9.886-1.72-11.176 6.448 17.416 12.035 22.143 24.93 23.64 6.533 0 3.868-5.365 0-6.224m-37.824-34.107 17.193-9.825m20.631 43.932c-9.456-2.102-14.471-9.17-16.333-12.465m16.333 12.465c11.347 0 9.886-4.728 3.868-6.018m0 0c-10.315-3.009-11.605-7.307-15.811-11.893m15.811 11.893c10.746 0 5.588-4.655-.43-7.595-6.447-3.15-9.54-6.589-11.512-8.167 10.653 2.947 9.792 2.622 12.802 2.947 5.158.558 1.681-3.2-3.868-6.097-8.934-4.664-14.184-10.968-21.491-19.002M246.375 106.273c-5.502-10.24-3.725-19.39-2.149-22.686 5.55-11.605-2.15-19.772-4.729-24.07-5.415-9.026-14.614-3.868-9.026 2.579l3.869 6.017c-7.307 6.877-10.746 18.053-7.307 23.21m152.886 400.688v4.099c-42.359 7.515-70.163 19.847-60.598 25.312m0 0 98.173-.033m-98.173.033-20.321.005c-8.882-3.416 11.231-18.485 60.422-25.317v-4.099m58.072 29.378s-4.099-20.041-4.782-29.378m4.782 29.378s-280.994.125-416.494 0m416.494 0 42.07.038M354.319 303.448l-1.729-27.328M366 492.011l-10.773-174.216" stroke="#000" stroke-width="3"/><circle cx="333.716" cy="66.433" r="1.808" fill="#000"/><circle cx="344.891" cy="66.288" r="1.808" fill="#000"/></svg>