<svg width="252" height="195" fill="none" xmlns="http://www.w3.org/2000/svg"><path fill-rule="evenodd" clip-rule="evenodd" d="M153.521 33.53c.123-.978.215-1.955.215-2.993 0-1.039-.092-2.016-.215-2.993l6.471-5.038c.583-.459.736-1.283.368-1.955l-6.133-10.566a1.534 1.534 0 0 0-1.35-.763c-.184 0-.368.03-.521.092l-7.637 3.053a22.425 22.425 0 0 0-5.182-2.992l-1.166-8.092C138.279.55 137.635 0 136.869 0h-12.268c-.766 0-1.41.55-1.502 1.283l-1.166 8.092c-1.87.763-3.588 1.801-5.183 2.992l-7.636-3.053a1.743 1.743 0 0 0-.552-.092c-.521 0-1.043.275-1.319.763l-6.133 10.566a1.5 1.5 0 0 0 .368 1.955l6.471 5.038c-.123.977-.215 1.985-.215 2.993 0 1.007.092 2.015.215 2.992l-6.471 5.039c-.583.458-.736 1.282-.368 1.954l6.133 10.566c.276.488.798.763 1.35.763.184 0 .368-.03.521-.091l7.636-3.054a22.453 22.453 0 0 0 5.183 2.992l1.166 8.093c.092.733.736 1.282 1.502 1.282h12.268c.766 0 1.41-.55 1.502-1.282l1.166-8.093c1.87-.763 3.588-1.801 5.182-2.992l7.637 3.053c.184.062.368.092.552.092a1.52 1.52 0 0 0 1.319-.763l6.133-10.566c.368-.672.215-1.496-.368-1.954l-6.471-5.039zm-22.749 9.923c7.074 0 12.809-5.71 12.809-12.754s-5.735-12.754-12.809-12.754c-7.074 0-12.808 5.71-12.808 12.754 0 7.043 5.734 12.754 12.808 12.754zM26.4 104.445c-12.01 5.211-19.831 10.734-23.454 16.56-5.104 8.207-1.07 14.887 10.51 17.403 8.145 1.77 17.467 1.534 27.617-.7 23.718-5.22 41.753-18.773 38.977-29.291-1.177-4.46-5.793-7.522-13.567-9-9.268-1.761-15.578-1.326-28.834 1.99-5.514 1.379-10.576 2.746-11.25 3.038zm54.586 13.195c-.544 2.475-3.961 7.249-7.196 10.053-6.28 5.443-13.848 9.22-25.225 12.59-18.234 5.401-35.474 5.11-42.904-.723-1.152-.905-2.245-1.605-2.429-1.556-.184.049.375 2.706 1.24 5.903 1.337 4.933 1.784 6.068 2.953 7.487 4.362 5.295 16.724 7.659 31.258 5.978 6.713-.777 20.45-4.784 26.146-7.629 8.323-4.156 13.965-8.38 17.457-13.07 2.415-3.244 3.253-6.213 2.742-9.71-.472-3.237-2.883-10.92-3.384-10.786-.197.052-.492.711-.658 1.463zm4.65 18.888c-5.369 15.907-41.552 29.539-65.934 24.84-2.707-.522-4.77-1.333-7.841-3.082l-4.168-2.375 1.56 5.791c2.046 7.589 2.602 8.484 6.697 10.779 17.848 10.006 60.775-1.11 72.03-18.652 2.623-4.087 2.811-6.003 1.243-12.668-.721-3.066-1.612-5.987-1.98-6.492-.647-.887-.702-.823-1.607 1.859zm4.937 18.157c-2.568 8.055-12.477 15.437-28.35 21.118-12.24 4.381-26.362 5.932-36.597 4.017-3.449-.645-5.379-1.321-7.893-2.763-1.83-1.05-3.768-2.302-4.306-2.781-.929-.828-.888-.528.796 5.813 1.986 7.479 2.61 8.543 6.232 10.625 5.795 3.332 13.624 4.476 24.883 3.637 4.677-.348 6.058-.652 16.12-3.546 9.843-2.831 11.449-3.405 15.182-5.418 10.884-5.871 17.12-11.959 18.41-17.973.389-1.808.252-2.99-.946-8.135-.849-3.649-1.65-6.274-2.033-6.666-.55-.564-.744-.297-1.498 2.072zm114.216-53.238 20.109-20.024-15.735-4.198-24.293 24.189 4.997 18.569-36.725 36.569.055.055-6.296 6.269-.087-.024-10.594 10.55 3.877 14.41 14.473 3.861 9.102-9.063.055.055 18.35-18.272-.116-.116 26.114-26.002 18.872 5.035 24.293-24.189-4.217-15.67-20.111 20.025-17.448-4.656-4.675-17.373z" fill="#001524" fill-opacity=".9"/></svg>