<svg width="477" height="495" fill="none" xmlns="http://www.w3.org/2000/svg"><path d="M113.078 0h263v33h-263V0z" fill="#7DC0BC"/><path d="M18.578 397.5h87l-13.5 95.5h-59l-14.5-95.5z" fill="#001524" fill-opacity=".9"/><path d="M69.078 397.5c17.2-68-14.5-120-32.5-137.5" stroke="#000" stroke-width="3"/><ellipse cx="21.003" cy="248.631" rx="4.498" ry="22.491" transform="rotate(-55 21.003 248.631)" fill="#001524" fill-opacity=".9"/><ellipse cx="47.251" cy="347.588" rx="5.522" ry="27.611" transform="rotate(-60 47.251 347.588)" fill="#001524" fill-opacity=".9"/><ellipse cx="92.666" cy="322.088" rx="4.97" ry="24.852" transform="rotate(45 92.666 322.088)" fill="#001524" fill-opacity=".9"/><ellipse cx="76.309" cy="277.008" rx="4.97" ry="24.852" transform="rotate(30 76.309 277.008)" fill="#001524" fill-opacity=".9"/><path d="m403.113 326.168 34.455 12.296c0 37.061-17.493 52.631-39.365 56.64l29.285 6.23-29.285 67.128-72.844-44.101.503 30.979h-92.98s9.906-42.493 14.903-71.103c4.996-28.611 14.903-71.104 14.903-71.104 4.127-14.685 16.423-11.123 19.117-11.123 1.008 2.642 4.678 2.81 6.387 2.564 1.67-1.253 1.748-3.866 1.741-4.187l-.003.016c0-.061.002-.062.003-.016.801-3.289 2.445-4.141 3.168-4.155 0 3.719 3.766 6.3 5.649 7.125l-6.17 10.08 52.833 27.199c46.751 18.813 55.528 2.259 57.7-14.468zM361.873 206.048c12.122 9.95 28.762 19.596 37.278-14.989-4.822 3.606-18.726 5.778-36.844-.609l-.434 7.864c4.475-1.955 10.253-2.172 7.516 6.474-.362 1.825-2.372 4.632-7.516 1.26z" fill="#7DC0BC"/><path d="M340.886 184.454c-8.646 2.433-4.931 5.212-1.26 5.909 4.345.826 3.389 9.109 3.389 13.296 0 14.815 4.693 14.729 17.293 17.9v3.78m15.337-3.78a48.482 48.482 0 0 1-1.008 5.937m0 0c-.771 3.21-1.938 6.142-3.511 6.142-3.606.507-10.818.313-10.818-4.519v-3.78m14.329 2.157c37.726 4.914 46.68 40.972 51.589 58.656 4.91 17.683 15.555 45.491 9.95 67.866m-75.868-128.679c-36.186-2.231-52.87-12.551-55.346-14.092-2.477-1.541-6.561-11.905-8.169-41.972l-4.431.427m48.886 81.691c-21.823-4.779-66.231-18.214-67.83-33.716-1.101-7.618-3.389-25.852-6.17-44.491l5.562-.536m68.076 60.988c1.703 27.482-2.356 50.95-4.598 59.248m54.919-31.674c4.449 10.949 9.559 41.088 11.557 54.789 4.102 44.943-36.031 34.209-57.656 24.462l-52.66-26.939 20.899-34.324 57.779 36.801M272.81 172.65l19.552-2.948m-19.552 2.948a12.491 12.491 0 0 1-2.379-3.375m.467-20.604c4.24-6.952 5.127-.753 5.04 3.215m-5.04-3.215-13.86-6.63m13.86 6.63c-.177.399-.357.85-.533 1.347m5.573 1.868c-.521 1.564.666 6.199 1.347 8.69m-1.347-8.69 10.884 5.583 5.67 2.631m-29.111-21.471-19.986-8.815h-5.909l3.346 4.475 16.206 7.752m6.343-3.412c13.947-3.253 19.567-.818 24.462 1.092 5.144 3.271 5.257 8.859 4.649 12.382m-29.111-13.474 29.111 13.474m0 0 7.212 3.302c1.188.58 3.198 2.425 1.738 5.171-.391.97-1.868 2.633-4.649 1.521l-4.301-1.997m0 0c-.53 3.477-.602 6.288-.194 9.175m.064.427a20.946 20.946 0 0 1-.064-.427m-35.26-27.234c-4.77 2.403 1.947 3.56 6.908 4.098m2.086.204c-.625-.055-1.335-.122-2.086-.204m0 0c-6.013 4.111 1.774 4.299 6.419 3.879m0 0c-1.62 4.584-2.929 13.122.066 19.257m153.753 212.333c-22.254 22.255-62.601 17.369-99.584-3.565m-24.722-16.855c7.889 6.377 16.217 12.041 24.722 16.855m0 0 1.304 77.297m-65.129.435c0 .382-.305 10.21-1.304 14.903-114.393 24.822-16.119 22.593 47.359 22.593l-2.867-38.886m172.115 38.886h-49.2m-274.8 0h274.8m-5.604-76.078c.417.417 23.158 7.154 43.144 8.211 19.986 1.058-37.54 67.867-37.54 67.867m0 0c-75.774 0-19.725-9.646-12.643-18.944l6.691-18.118-12.948-8.472m-47.105-279.445c-19.41-6.828-28.843-4.84-27.605.983m20.479 3.666c5.548-4.471 13.569-7.334 21.428-8.061m-13.39 33.478c10.15-3.748 8.922 3.536 7.039 7.647-1.391 2.85-5.272 1.187-7.039 0m-28.517-36.73c.886 4.168 7.236 10.299 19.306 16.57a61.94 61.94 0 0 0 9.733 4.619c17.091 6.368 33.348 3.991 36.757.595 7.24-20.382-7.993-27.65-23.889-26.179m-41.907 4.395h-40.97m82.877-4.395.47-131.99H113.078v60.09m157.353 76.295-157.353.427v-35.413m161.943 164.623c-1.562-.191-6.55-1.984-6.25-4.891.145-2.713 3.362-9.846 9.444-13.365-7.138 1.341-9.031 6.376-10.899 9.869-.703.917-2.116 2.987-4.546 1.851-1.349-.631-2.437-2.815-1.103-5.605 1.122-2.347 1.651-3.91 3.389-6.561 1.576-2.403 2.382-3.352 5.269-4.939m4.696 23.641c-.065-.989-.135-1.264-.102-1.757.203-3.027 2.2-5.61 8.308-10.677m-8.206 12.434c1.193 3.619 6.72 3.153 6.72 3.153m0 0s-1.028-5.709 6.779-11.54m-6.779 11.54c.469 2.182 5.564 3.478 6.659 2.242 2.021-2.281.711-5.858 4.793-8.395.134 5.73 4.197 6.309 5.426 7.576m-15.817-31.964c1.88-.059 3.76.139 5.607.65 2.434.674 5.203 1.804 8.065 3.172 3.551 1.524 7.088 5.884 13.247 9.788m-26.919-13.61c-7.126-1.594-8.752-1.133-13.04-3.596-4.288-2.463-8.253-1.621-6.992 1.855 1.262 3.476 4.576 3.314 7.555 5.488m12.477-3.747c-4.297.136-8.593 1.613-12.477 3.747m38.239-258.798h9.588m33.614-4.576 4.552 4.552m0 0L360.87 21m-4.552-4.551-4.577 4.576m4.577-4.576 4.576-4.577M144.306 137.558s9.558-33.151 45.925-44.013c39.767-11.878 67.721 17.038 105.493 10.862 34.541-5.649 39.538-20.345 55.049-40.972m0 0v10.992m0-10.992-11.905 1.825M115.578 493.27h-104m8-66.771h87M327.945 11.748h9.451v9.45h-9.451v-9.45z" stroke="#000" stroke-width="3"/><path d="M189.84 59.22v82.335M295.941 59.22v77.643" stroke="#000" stroke-width="3" stroke-dasharray="8 8"/><circle cx="295.941" cy="104.016" r="12.136" fill="#7DC0BC"/><circle cx="190.214" cy="95.136" r="12.136" fill="#7DC0BC"/></svg>