<svg width="289" height="200" fill="none" xmlns="http://www.w3.org/2000/svg"><path fill-rule="evenodd" clip-rule="evenodd" d="M1.692.066C1.055.194.273 1.051.127 1.784.057 2.132 0 10.41 0 20.177v2.197C0 37.172-.002 38.911.794 39.43c.105.069.225.116.361.17l.152.06c1.068.447 36.334.447 37.402 0l.161-.064c.136-.053.255-.1.36-.168.799-.517.793-2.276.746-17.356l-.007-2.386c-.046-15.21-.102-18.305-.34-18.66l-.077-.121c-.05-.08-.095-.151-.148-.216-.538-.66-1.884-.662-16.832-.681l-2.26-.003C10.315-.01 1.936.018 1.693.066zm35.346 12.688c-.1.154-4.66 4.737-10.132 10.185l-9.949 9.905-7.106-7.111-7.106-7.111 2.08-2.082 2.081-2.081 5.079 5.077 5.079 5.078 8.073-8.076 8.072-8.075 2.006 2.006c1.469 1.47 1.956 2.08 1.822 2.285zM.127 81.787c.146-.733.928-1.59 1.565-1.718.243-.048 8.622-.076 18.62-.063l2.26.004c14.948.019 16.294.02 16.832.68.053.066.098.138.148.217l.078.12c.237.356.293 3.45.339 18.66l.007 2.387c.047 15.08.053 16.838-.746 17.356a2.007 2.007 0 0 1-.36.168l-.07.028-.048.019a6.478 6.478 0 0 1-.043.018c-1.068.446-36.334.446-37.402 0a7.166 7.166 0 0 0-.152-.061c-.136-.054-.256-.101-.361-.17-.796-.518-.795-2.257-.794-17.055v-2.197c0-9.768.057-18.045.127-18.393zm26.779 21.154c5.472-5.447 10.031-10.03 10.132-10.184.133-.204-.354-.816-1.823-2.285l-2.006-2.006-8.073 8.075-8.072 8.076-5.079-5.078-5.079-5.077-2.08 2.081-2.081 2.081 7.106 7.111 7.106 7.112 9.949-9.906zm205.622 13.988c4.684.518 8.257-1.48 11.185-4.559 2.862-3.01 5.195-7.145 7.449-11.139l.063-.112c2.307-4.09 4.538-8.023 7.226-10.827 2.649-2.762 5.65-4.336 9.539-3.875 13.306 1.576 20.419 14.809 18.779 29.406l1.988.224c1.706-15.19-5.694-29.858-20.531-31.616-4.696-.556-8.281 1.413-11.218 4.477-2.89 3.014-5.239 7.177-7.508 11.197l-.017.031c-2.308 4.09-4.536 8.033-7.22 10.856-2.645 2.782-5.639 4.378-9.514 3.949-3.502-.388-5.824-2.203-7.61-4.845-1.822-2.696-3.041-6.182-4.312-9.829l-.015-.043c-1.244-3.569-2.543-7.294-4.536-10.21-2.039-2.982-4.846-5.179-9.071-5.585-4.604-.443-7.89 1.394-10.429 4.313-2.482 2.855-4.291 6.792-6.03 10.628l-.132.291c-1.723 3.8-3.4 7.501-5.629 10.336-2.252 2.865-5.003 4.764-8.872 4.939-4.079.185-7.039-1.508-9.512-4.249-2.517-2.789-4.472-6.6-6.502-10.562l-.019-.038c-1.992-3.888-4.06-7.925-6.779-10.907-2.775-3.042-6.279-5.043-11.091-4.754-4.529.272-7.692 2.522-10.113 5.618-2.328 2.978-4.02 6.803-5.637 10.461l-.118.267c-1.681 3.801-3.297 7.393-5.488 10.033-2.145 2.584-4.798 4.203-8.612 4.13-15.852-.303-28.478-13.624-27.938-29.477l-1.999-.068c-.578 16.968 12.93 31.22 29.898 31.545 4.544.087 7.741-1.902 10.189-4.852 2.403-2.894 4.125-6.762 5.779-10.502l.064-.145c1.66-3.753 3.264-7.38 5.438-10.16 2.165-2.769 4.841-4.624 8.657-4.854 4.075-.245 7.026 1.401 9.493 4.106 2.513 2.755 4.466 6.546 6.496 10.509l.056.109c1.98 3.866 4.04 7.887 6.741 10.881 2.772 3.071 6.274 5.125 11.087 4.907 4.608-.209 7.852-2.519 10.354-5.701 2.382-3.03 4.147-6.926 5.831-10.641l.179-.396c1.768-3.9 3.463-7.548 5.719-10.142 2.199-2.53 4.886-4.004 8.728-3.635 3.505.338 5.826 2.113 7.611 4.724 1.822 2.665 3.042 6.136 4.313 9.782l.039.11c1.236 3.548 2.529 7.258 4.505 10.181 2.032 3.006 4.829 5.246 9.046 5.713zm0-80.003c4.684.518 8.257-1.48 11.185-4.559 2.862-3.01 5.195-7.145 7.449-11.14l.063-.111c2.307-4.09 4.538-8.023 7.226-10.827 2.649-2.762 5.65-4.336 9.539-3.875 13.306 1.576 20.419 14.81 18.779 29.407l1.988.223c1.706-15.19-5.694-29.858-20.531-31.616-4.696-.556-8.281 1.413-11.218 4.477-2.89 3.014-5.239 7.178-7.508 11.197l-.017.031c-2.308 4.09-4.536 8.034-7.22 10.856-2.645 2.782-5.639 4.378-9.514 3.95-3.502-.389-5.824-2.204-7.61-4.846-1.822-2.695-3.041-6.182-4.312-9.829l-.015-.043c-1.244-3.569-2.543-7.294-4.536-10.21-2.039-2.982-4.846-5.179-9.071-5.585-4.604-.443-7.89 1.394-10.429 4.313-2.482 2.855-4.291 6.792-6.03 10.628l-.132.291c-1.723 3.8-3.4 7.5-5.629 10.336-2.252 2.865-5.003 4.764-8.872 4.94-4.079.184-7.039-1.509-9.512-4.25-2.517-2.79-4.472-6.6-6.502-10.562l-.019-.038c-1.992-3.888-4.06-7.925-6.779-10.907-2.775-3.042-6.279-5.043-11.091-4.754-4.529.272-7.692 2.522-10.113 5.618-2.328 2.978-4.02 6.803-5.637 10.46l-.118.268c-1.681 3.801-3.297 7.393-5.488 10.033-2.145 2.584-4.798 4.203-8.612 4.13C96.39 34.63 83.764 21.308 84.304 5.455l-1.999-.068c-.578 16.968 12.93 31.22 29.898 31.545 4.544.087 7.741-1.902 10.189-4.852 2.403-2.894 4.125-6.762 5.779-10.502l.064-.145c1.66-3.753 3.264-7.38 5.438-10.16 2.165-2.769 4.841-4.624 8.657-4.854 4.075-.245 7.026 1.401 9.493 4.106 2.513 2.755 4.466 6.546 6.496 10.509l.056.11c1.98 3.865 4.04 7.886 6.741 10.88 2.772 3.072 6.274 5.125 11.087 4.907 4.608-.209 7.852-2.518 10.354-5.7 2.382-3.03 4.147-6.927 5.831-10.642l.179-.396c1.768-3.9 3.463-7.548 5.719-10.142 2.199-2.53 4.886-4.004 8.728-3.634 3.505.337 5.826 2.112 7.611 4.723 1.822 2.665 3.042 6.136 4.313 9.782l.039.11c1.236 3.548 2.529 7.258 4.505 10.18 2.032 3.007 4.829 5.247 9.046 5.714zM1.692 160.072c-.637.127-1.419.985-1.565 1.718-.07.348-.127 8.624-.127 18.393v2.197C0 197.178-.002 198.916.794 199.434c.105.069.225.117.361.17.049.019.1.039.152.061 1.068.447 36.334.447 37.402 0l.162-.064c.135-.053.254-.1.36-.168.798-.518.792-2.276.745-17.357l-.007-2.386c-.046-15.21-.102-18.304-.34-18.66a5.161 5.161 0 0 1-.077-.121 2.235 2.235 0 0 0-.148-.216c-.538-.66-1.884-.661-16.832-.681l-2.26-.003c-9.998-.014-18.377.015-18.62.063zm35.346 12.688c-.1.153-4.66 4.736-10.132 10.184l-9.949 9.905-7.106-7.111-7.106-7.111 2.08-2.081 2.081-2.082 5.079 5.078 5.079 5.078 8.073-8.076 8.072-8.076 2.006 2.006c1.469 1.47 1.956 2.081 1.822 2.286zm195.49 24.172c4.684.518 8.257-1.48 11.185-4.559 2.862-3.01 5.195-7.146 7.449-11.14l.063-.111c2.307-4.09 4.538-8.023 7.226-10.827 2.649-2.763 5.65-4.336 9.539-3.875 13.306 1.576 20.419 14.809 18.779 29.406l1.988.223c1.706-15.19-5.694-29.857-20.531-31.615-4.696-.556-8.281 1.413-11.218 4.476-2.89 3.015-5.239 7.178-7.508 11.198l-.017.031c-2.308 4.09-4.536 8.033-7.22 10.856-2.645 2.782-5.639 4.378-9.514 3.949-3.502-.388-5.824-2.203-7.61-4.846-1.822-2.695-3.041-6.181-4.312-9.828l-.015-.043v-.001c-1.244-3.568-2.543-7.294-4.536-10.209-2.039-2.983-4.846-5.179-9.071-5.586-4.604-.442-7.89 1.395-10.429 4.314-2.482 2.855-4.291 6.791-6.03 10.627l-.132.292c-1.723 3.8-3.4 7.5-5.629 10.336-2.252 2.865-5.003 4.764-8.872 4.939-4.079.184-7.039-1.508-9.512-4.249-2.517-2.79-4.472-6.6-6.502-10.562l-.019-.038c-1.992-3.888-4.06-7.926-6.779-10.907-2.775-3.042-6.279-5.044-11.091-4.754-4.529.272-7.692 2.522-10.113 5.618-2.328 2.977-4.02 6.802-5.637 10.46l-.118.267c-1.681 3.802-3.297 7.394-5.488 10.034-2.145 2.584-4.798 4.203-8.612 4.13-15.852-.304-28.478-13.624-27.938-29.477l-1.999-.068c-.578 16.967 12.93 31.219 29.898 31.545 4.544.087 7.741-1.903 10.189-4.853 2.403-2.894 4.125-6.761 5.779-10.502l.064-.144c1.66-3.753 3.264-7.381 5.438-10.16 2.165-2.769 4.841-4.625 8.657-4.854 4.075-.245 7.026 1.401 9.493 4.105 2.513 2.755 4.466 6.547 6.496 10.509l.056.11c1.98 3.866 4.04 7.886 6.741 10.881 2.772 3.071 6.274 5.125 11.087 4.907 4.608-.209 7.852-2.519 10.354-5.701 2.382-3.03 4.147-6.926 5.831-10.641l.179-.397c1.768-3.899 3.463-7.547 5.719-10.141 2.199-2.529 4.886-4.004 8.728-3.635 3.505.337 5.826 2.113 7.611 4.723 1.822 2.666 3.042 6.137 4.313 9.783l.039.11c1.236 3.548 2.529 7.257 4.505 10.18 2.032 3.007 4.829 5.247 9.046 5.714z" fill="#001524" fill-opacity=".9"/></svg>