<svg width="31" height="30" viewBox="0 0 31 30" fill="none" xmlns="http://www.w3.org/2000/svg">
<path d="M14.5876 20.2403C15.1874 19.6405 16.1598 19.6405 16.7596 20.2403L25.8796 29.3603C26.4794 29.9601 27.4519 29.9601 28.0517 29.3603L30.2237 27.1883C30.8235 26.5885 30.8235 25.616 30.2237 25.0162L21.1038 15.8962C20.504 15.2964 20.504 14.3239 21.1038 13.7241L29.3603 5.46759C29.9601 4.86779 29.9601 3.89532 29.3603 3.29552L27.1883 1.12346C26.5885 0.523656 25.616 0.523656 25.0162 1.12346L16.7596 9.38001C16.1598 9.97981 15.1874 9.97981 14.5876 9.38001L6.33098 1.12343C5.73118 0.523634 4.75872 0.523634 4.15892 1.12343L1.98685 3.2955C1.38705 3.8953 1.38705 4.86777 1.98685 5.46757L10.2434 13.7241C10.8432 14.3239 10.8432 15.2964 10.2434 15.8962L1.12343 25.0162C0.523634 25.616 0.523634 26.5885 1.12343 27.1883L3.2955 29.3603C3.8953 29.9601 4.86777 29.9601 5.46757 29.3603L14.5876 20.2403Z" fill="#FEFEFE"/>
</svg>
