<svg width="36" height="36" fill="none" xmlns="http://www.w3.org/2000/svg"><path fill-rule="evenodd" clip-rule="evenodd" d="M18 0C8.055 0 0 8.259 0 18.455c0 8.167 5.152 15.064 12.307 17.51.9.161 1.237-.392 1.237-.877 0-.438-.022-1.892-.022-3.437C9 32.504 7.83 30.52 7.47 29.482c-.203-.53-1.08-2.168-1.845-2.607-.63-.346-1.53-1.2-.023-1.222 1.418-.023 2.43 1.338 2.768 1.892 1.62 2.79 4.207 2.006 5.242 1.522.158-1.2.63-2.007 1.147-2.468-4.005-.462-8.19-2.053-8.19-9.113 0-2.007.698-3.668 1.846-4.96-.18-.46-.81-2.352.18-4.89 0 0 1.507-.485 4.95 1.892 1.44-.416 2.97-.623 4.5-.623 1.53 0 3.06.207 4.5.623 3.442-2.4 4.95-1.892 4.95-1.892.99 2.538.36 4.43.18 4.89 1.147 1.292 1.845 2.93 1.845 4.96 0 7.083-4.208 8.651-8.213 9.113.652.576 1.215 1.684 1.215 3.414 0 2.468-.022 4.452-.022 5.075 0 .485.337 1.061 1.237.877a18.07 18.07 0 0 0 8.878-6.733A18.805 18.805 0 0 0 36 18.455C36 8.26 27.944 0 18 0z" fill="#001524" fill-opacity=".9"/></svg>