<svg width="36" height="36" fill="none" xmlns="http://www.w3.org/2000/svg"><path d="M18 0C8.059 0 0 8.06 0 18s8.059 18 18 18c9.94 0 18-8.06 18-18S27.94 0 18 0zm-6.757 8.104c1.264 0 2.105.842 2.105 1.964 0 1.122-.841 1.963-2.244 1.963C9.841 12.034 9 11.19 9 10.069s.841-1.963 2.243-1.963zM13.5 25.5H9v-12h4.5v12zm15 0h-4.235v-6.558c0-1.814-1.13-2.232-1.553-2.232-.423 0-1.836.279-1.836 2.232V25.5H16.5v-12h4.377v1.674c.564-.976 1.693-1.674 3.811-1.674s3.812 1.674 3.812 5.442V25.5z" fill="#001524" fill-opacity=".9"/></svg>