<svg width="50" height="50" viewBox="0 0 50 50" fill="none" xmlns="http://www.w3.org/2000/svg">
<path fill-rule="evenodd" clip-rule="evenodd" d="M25 50C38.8071 50 50 38.8071 50 25C50 11.1929 38.8071 0 25 0C11.1929 0 0 11.1929 0 25C0 38.8071 11.1929 50 25 50ZM33.4468 36.2048L25.8743 14.3676L16.1761 32.1546L23.2175 29.6724C24.5572 29.2002 26.026 29.9034 26.4983 31.2431C26.9705 32.5828 26.2673 34.0516 24.9276 34.5239L14.2182 38.299C11.1111 39.539 8.11203 36.1987 9.73258 33.2265L23.028 8.8423C24.5245 6.09776 28.5673 6.4328 29.5915 9.38632L38.3069 34.5195C38.7723 35.8616 38.0616 37.3268 36.7196 37.7922C35.3775 38.2576 33.9122 37.5469 33.4468 36.2048Z" fill="#EEEEEE"/>
</svg>
