<svg width="36" height="36" fill="none" xmlns="http://www.w3.org/2000/svg"><path fill-rule="evenodd" clip-rule="evenodd" d="M35.909 17.898c0 9.884-8.013 17.897-17.898 17.897-3.07 0-5.96-.773-8.485-2.135a.767.767 0 0 1-.131.048L.939 35.974a.746.746 0 0 1-.913-.913l2.265-8.456a.776.776 0 0 1 .03-.089 17.817 17.817 0 0 1-2.208-8.618C.113 8.013 8.126 0 18.011 0s17.898 8.013 17.898 17.898zM29.4 24.596c0 .285-.052.658-.158 1.117a6.29 6.29 0 0 1-.333 1.086c-.222.528-.866 1.088-1.933 1.68-.994.539-1.976.808-2.948.808a6.11 6.11 0 0 1-.832-.055 6.853 6.853 0 0 1-.912-.198 12.91 12.91 0 0 1-.752-.23 61.802 61.802 0 0 1-.88-.325 33.98 33.98 0 0 0-.776-.285 14.358 14.358 0 0 1-2.774-1.316c-1.352-.834-2.75-1.973-4.192-3.415-1.442-1.442-2.58-2.84-3.415-4.192a14.353 14.353 0 0 1-1.315-2.773 33.833 33.833 0 0 0-.286-.777 62.765 62.765 0 0 1-.324-.88 12.928 12.928 0 0 1-.23-.752 6.85 6.85 0 0 1-.198-.911 6.112 6.112 0 0 1-.056-.832c0-.972.27-1.955.808-2.948.592-1.067 1.152-1.712 1.68-1.934a6.297 6.297 0 0 1 1.086-.332c.46-.106.832-.159 1.117-.159.148 0 .26.016.333.048.19.063.47.465.84 1.204.116.2.275.486.476.856.2.37.385.705.554 1.006.17.301.333.584.491.848.032.042.125.175.278.396.153.222.267.41.34.563.075.153.111.304.111.452 0 .21-.15.475-.451.792a7.73 7.73 0 0 1-.983.872 9.546 9.546 0 0 0-.982.84c-.302.295-.452.538-.452.729 0 .095.026.214.08.356.052.143.097.251.134.325.037.074.11.2.222.38.11.18.171.28.182.302.803 1.447 1.722 2.688 2.758 3.724 1.035 1.035 2.276 1.954 3.724 2.757.021.011.121.072.301.183.18.11.306.185.38.221.074.037.183.082.325.135.143.053.262.08.357.08.19 0 .433-.151.729-.452.296-.301.576-.629.84-.983s.555-.681.871-.982c.317-.302.582-.452.793-.452.148 0 .298.037.452.11.153.075.34.188.562.342.222.153.354.245.396.277.264.159.547.322.848.491.301.17.637.354 1.006.555.37.2.656.36.856.475.74.37 1.141.65 1.205.84a.887.887 0 0 1 .047.333z" fill="#001524" fill-opacity=".9"/></svg>