<svg width="36" height="36" viewBox="0 0 36 36" fill="none" xmlns="http://www.w3.org/2000/svg">
<path fill-rule="evenodd" clip-rule="evenodd" d="M18 36C27.9411 36 36 27.9411 36 18C36 8.05887 27.9411 0 18 0C8.05887 0 0 8.05887 0 18C0 27.9411 8.05887 36 18 36ZM24.0817 26.0675L18.6295 10.3447L11.6468 23.1513L16.7166 21.3642C17.6812 21.0241 18.7387 21.5305 19.0788 22.495C19.4188 23.4596 18.9125 24.5172 17.9479 24.8572L10.2371 27.5753C7.99997 28.4681 5.84066 26.063 7.00746 23.9231L16.5802 6.36646C17.6576 4.39039 20.5685 4.63162 21.3059 6.75815L27.581 24.854C27.9161 25.8203 27.4044 26.8753 26.4381 27.2104C25.4718 27.5455 24.4168 27.0338 24.0817 26.0675Z" fill="#50C3DE"/>
</svg>
