<svg width="1440" height="86" viewBox="0 0 1440 86" fill="none" xmlns="http://www.w3.org/2000/svg">
<path d="M0 68.4061L48 71.3013C96 74.415 192 79.8777 288 77.1464C384 74.4151 480 62.3972 576 48.0305C672 33.4453 768 15.9648 864 7.2246C960 -1.51562 1056 -1.51562 1152 4.3294C1248 9.95592 1344 21.9737 1392 27.6002L1440 33.4453V85.8866H1392C1344 85.8866 1248 85.8866 1152 85.8866C1056 85.8866 960 85.8866 864 85.8866C768 85.8866 672 85.8866 576 85.8866C480 85.8866 384 85.8866 288 85.8866C192 85.8866 96 85.8866 48 85.8866H0V68.4061Z" fill="#FEFEFE" fill-opacity="0.16"/>
</svg>
