<svg width="1440" height="98" viewBox="0 0 1440 98" fill="none" xmlns="http://www.w3.org/2000/svg">
<path d="M0 78.3973L48 68.6527C96 58.908 192 39.4187 288 23.1574C384 7.1396 480 -6.25929 576 3.66807C672 13.23 768 46.1182 864 55.6801C960 65.6075 1056 52.2086 1152 55.6801C1248 58.908 1344 78.3973 1392 88.142L1440 97.8866H1392C1344 97.8866 1248 97.8866 1152 97.8866C1056 97.8866 960 97.8866 864 97.8866C768 97.8866 672 97.8866 576 97.8866C480 97.8866 384 97.8866 288 97.8866C192 97.8866 96 97.8866 48 97.8866H0V78.3973Z" fill="#FEFEFE" fill-opacity="0.24"/>
</svg>
