<svg width="1440" height="120" viewBox="0 0 1440 120" fill="none" xmlns="http://www.w3.org/2000/svg">
<path d="M0 51.38L48 39.98C96 28.366 192 5.88729 288 8.56333C384 11.2394 480 40.1406 576 59.9433C672 79.746 768 91.5206 864 94.1966C960 96.8727 1056 91.5206 1152 74.2334C1248 57.2673 1344 28.366 1392 14.2901L1440 0V119.887H1392C1344 119.887 1248 119.887 1152 119.887C1056 119.887 960 119.887 864 119.887C768 119.887 672 119.887 576 119.887C480 119.887 384 119.887 288 119.887C192 119.887 96 119.887 48 119.887H0V51.38Z" fill="#FEFEFE" fill-opacity="0.08"/>
</svg>
